0
SECTION
2
HEADER
9
$INSUNITS
70
4
9
$ACADVER
1
AC1014
9
$HANDSEED
5
FFFF
0
ENDSEC
0
SECTION
2
TABLES
0
TABLE
2
VPORT
5
8
100
AcDbSymbolTable
0
ENDTAB
0
TABLE
2
LTYPE
5
5
100
AcDbSymbolTable
0
LTYPE
5
14
100
AcDbSymbolTableRecord
100
AcDbLinetypeTableRecord
2
BYBLOCK
70
0
0
LTYPE
5
15
100
AcDbSymbolTableRecord
100
AcDbLinetypeTableRecord
2
BYLAYER
70
0
0
LTYPE
5
16
100
AcDbSymbolTableRecord
100
AcDbLinetypeTableRecord
2
DASHED
70
0
3
Dashed __ __ __ __ __ __ __ __ __ __ __ __ __ _
72
65
73
2
40
0.75
49
0.5
74
0
49
-0.25
74
0
0
ENDTAB
0
TABLE
2
LAYER
5
2
100
AcDbSymbolTable
70
2
0
LAYER
5
50
100
AcDbSymbolTableRecord
100
AcDbLayerTableRecord
2
0
70
0
62
7
6
CONTINUOUS
0
ENDTAB
0
TABLE
2
STYLE
5
3
100
AcDbSymbolTable
70
1
0
STYLE
5
11
100
AcDbSymbolTableRecord
100
AcDbTextStyleTableRecord
2
STANDARD
70
0
0
ENDTAB
0
TABLE
2
VIEW
5
6
100
AcDbSymbolTable
70
0
0
ENDTAB
0
TABLE
2
UCS
5
7
100
AcDbSymbolTable
70
0
0
ENDTAB
0
TABLE
2
APPID
5
9
100
AcDbSymbolTable
70
2
0
APPID
5
12
100
AcDbSymbolTableRecord
100
AcDbRegAppTableRecord
2
ACAD
70
0
0
ENDTAB
0
TABLE
2
DIMSTYLE
5
A
100
AcDbSymbolTable
70
1
0
ENDTAB
0
TABLE
2
BLOCK_RECORD
5
1
100
AcDbSymbolTable
70
1
0
BLOCK_RECORD
5
1F
100
AcDbSymbolTableRecord
100
AcDbBlockTableRecord
2
*MODEL_SPACE
0
BLOCK_RECORD
5
1B
100
AcDbSymbolTableRecord
100
AcDbBlockTableRecord
2
*PAPER_SPACE
0
ENDTAB
0
ENDSEC
0
SECTION
2
BLOCKS
0
BLOCK
5
20
100
AcDbEntity
100
AcDbBlockBegin
2
*MODEL_SPACE
0
ENDBLK
5
21
100
AcDbEntity
100
AcDbBlockEnd
0
BLOCK
5
1C
100
AcDbEntity
100
AcDbBlockBegin
2
*PAPER_SPACE
0
ENDBLK
5
1D
100
AcDbEntity
100
AcDbBlockEnd
0
ENDSEC
0
SECTION
2
ENTITIES
0
POINT
5
100
100
AcDbEntity
8
0
100
AcDbPoint
10
0
20
0
30
0
0
POINT
5
101
100
AcDbEntity
8
0
100
AcDbPoint
10
0
20
0
30
0
0
POINT
5
102
100
AcDbEntity
8
0
100
AcDbPoint
10
0
20
0
30
0
0
POINT
5
103
100
AcDbEntity
8
0
100
AcDbPoint
10
0
20
0
30
0
0
LINE
5
104
100
AcDbEntity
8
0
100
AcDbLine
10
0
20
-5
30
0
11
0
21
0
31
0
0
LINE
5
105
100
AcDbEntity
8
0
100
AcDbLine
10
0
20
0
30
0
11
0.5
21
0
31
0
0
LINE
5
106
100
AcDbEntity
8
0
100
AcDbLine
10
0.5
20
0
30
0
11
0.49999999999999944
21
-4.5
31
0
0
SPLINE
5
107
100
AcDbEntity
8
0
100
AcDbSpline
70
4
71
5
72
21
73
15
74
0
42
0.000000001
43
0.0000000001
44
0.0000000001
40
0
40
0
40
0
40
0
40
0
40
0
40
0.10000000000000001
40
0.20000000000000001
40
0.30000000000000004
40
0.40000000000000002
40
0.5
40
0.59999999999999998
40
0.69999999999999996
40
0.79999999999999993
40
0.89999999999999991
40
1
40
1
40
1
40
1
40
1
40
1
41
1
41
1
41
1
41
1
41
1
41
1
41
1
41
1
41
1
41
1
41
1
41
1
41
1
41
1
41
1
10
0
20
-5
30
0
10
0.10232607186221707
20
-5.0005397673372105
30
0
10
0.3024950624782683
20
-4.9981459668751942
30
0
10
0.58929984667970414
20
-4.9841358477274609
30
0
10
0.94435975724925747
20
-4.9442689376786833
30
0
10
1.3394385400826549
20
-4.8566691216083679
30
0
10
1.6811352197201037
20
-4.7277113750357627
30
0
10
1.9646360587787099
20
-4.5536662417533016
30
0
10
2.1865351379559534
20
-4.331894976462908
30
0
10
2.3481387776165095
20
-4.0634096544411467
30
0
10
2.4535374355552046
20
-3.7513793690558996
30
0
10
2.4963456295799018
20
-3.4695945873063057
30
0
10
2.5065517650335551
20
-3.2412889082788428
30
0
10
2.5037799072393558
20
-3.0816661302732733
30
0
10
2.5
20
-3.0000000000000004
30
0
0
SPLINE
5
108
100
AcDbEntity
8
0
100
AcDbSpline
70
4
71
5
72
21
73
15
74
0
42
0.000000001
43
0.0000000001
44
0.0000000001
40
0
40
0
40
0
40
0
40
0
40
0
40
0.10000000000000001
40
0.20000000000000001
40
0.30000000000000004
40
0.40000000000000002
40
0.5
40
0.59999999999999998
40
0.69999999999999996
40
0.79999999999999993
40
0.89999999999999991
40
1
40
1
40
1
40
1
40
1
40
1
41
1
41
1
41
1
41
1
41
1
41
1
41
1
41
1
41
1
41
1
41
1
41
1
41
1
41
1
41
1
10
0.49999999999999944
20
-4.5
30
0
10
0.5632153384668388
20
-4.4971980581813789
30
0
10
0.68676355768800557
20
-4.4892339019655916
30
0
10
0.8634388640658599
20
-4.4702071370601786
30
0
10
1.0814243419489491
20
-4.4304415965420301
30
0
10
1.3225989946841021
20
-4.3550990778208325
30
0
10
1.5296077197948188
20
-4.2517801201939323
30
0
10
1.6995658596678425
20
-4.1181226497153931
30
0
10
1.830726143839192
20
-3.9526959308897478
30
0
10
1.9243997983138341
20
-3.75657364843067
30
0
10
1.9833236718747957
20
-3.531996844455128
30
0
10
2.0048968118531563
20
-3.3314009634842896
30
0
10
2.007602955721087
20
-3.1699212349146606
30
0
10
2.0035161541972926
20
-3.0574443782285901
30
0
10
2
20
-3.0000000000000004
30
0
0
LINE
5
109
100
AcDbEntity
8
0
100
AcDbLine
10
2.5
20
-3.0000000000000004
30
0
11
2
21
-3.0000000000000004
31
0
0
ENDSEC
0
SECTION
2
OBJECTS
0
DICTIONARY
5
C
100
AcDbDictionary
3
ACAD_GROUP
350
D
3
ACAD_MLINESTYLE
350
17
0
DICTIONARY
5
D
100
AcDbDictionary
0
DICTIONARY
5
1A
330
C
100
AcDbDictionary
0
DICTIONARY
5
17
100
AcDbDictionary
0
ENDSEC
0
EOF
