0
SECTION
2
HEADER
9
$INSUNITS
70
4
9
$ACADVER
1
AC1014
9
$HANDSEED
5
FFFF
0
ENDSEC
0
SECTION
2
TABLES
0
TABLE
2
VPORT
5
8
100
AcDbSymbolTable
0
ENDTAB
0
TABLE
2
LTYPE
5
5
100
AcDbSymbolTable
0
LTYPE
5
14
100
AcDbSymbolTableRecord
100
AcDbLinetypeTableRecord
2
BYBLOCK
70
0
0
LTYPE
5
15
100
AcDbSymbolTableRecord
100
AcDbLinetypeTableRecord
2
BYLAYER
70
0
0
LTYPE
5
16
100
AcDbSymbolTableRecord
100
AcDbLinetypeTableRecord
2
DASHED
70
0
3
Dashed __ __ __ __ __ __ __ __ __ __ __ __ __ _
72
65
73
2
40
0.75
49
0.5
74
0
49
-0.25
74
0
0
ENDTAB
0
TABLE
2
LAYER
5
2
100
AcDbSymbolTable
70
2
0
LAYER
5
50
100
AcDbSymbolTableRecord
100
AcDbLayerTableRecord
2
0
70
0
62
7
6
CONTINUOUS
0
ENDTAB
0
TABLE
2
STYLE
5
3
100
AcDbSymbolTable
70
1
0
STYLE
5
11
100
AcDbSymbolTableRecord
100
AcDbTextStyleTableRecord
2
STANDARD
70
0
0
ENDTAB
0
TABLE
2
VIEW
5
6
100
AcDbSymbolTable
70
0
0
ENDTAB
0
TABLE
2
UCS
5
7
100
AcDbSymbolTable
70
0
0
ENDTAB
0
TABLE
2
APPID
5
9
100
AcDbSymbolTable
70
2
0
APPID
5
12
100
AcDbSymbolTableRecord
100
AcDbRegAppTableRecord
2
ACAD
70
0
0
ENDTAB
0
TABLE
2
DIMSTYLE
5
A
100
AcDbSymbolTable
70
1
0
ENDTAB
0
TABLE
2
BLOCK_RECORD
5
1
100
AcDbSymbolTable
70
1
0
BLOCK_RECORD
5
1F
100
AcDbSymbolTableRecord
100
AcDbBlockTableRecord
2
*MODEL_SPACE
0
BLOCK_RECORD
5
1B
100
AcDbSymbolTableRecord
100
AcDbBlockTableRecord
2
*PAPER_SPACE
0
ENDTAB
0
ENDSEC
0
SECTION
2
BLOCKS
0
BLOCK
5
20
100
AcDbEntity
100
AcDbBlockBegin
2
*MODEL_SPACE
0
ENDBLK
5
21
100
AcDbEntity
100
AcDbBlockEnd
0
BLOCK
5
1C
100
AcDbEntity
100
AcDbBlockBegin
2
*PAPER_SPACE
0
ENDBLK
5
1D
100
AcDbEntity
100
AcDbBlockEnd
0
ENDSEC
0
SECTION
2
ENTITIES
0
POINT
5
100
100
AcDbEntity
8
0
100
AcDbPoint
10
0
20
0
30
0
0
POINT
5
101
100
AcDbEntity
8
0
100
AcDbPoint
10
0
20
0
30
0
0
POINT
5
102
100
AcDbEntity
8
0
100
AcDbPoint
10
0
20
0
30
0
0
LINE
5
103
100
AcDbEntity
8
0
100
AcDbLine
10
2.6811565715124691e-16
20
-5
30
0
11
0
21
0
31
0
0
LINE
5
104
100
AcDbEntity
8
0
100
AcDbLine
10
0
20
0
30
0
11
1
21
-1.5407439555097887e-32
31
0
0
LINE
5
105
100
AcDbEntity
8
0
100
AcDbLine
10
1
20
-1.5407439555097887e-32
30
0
11
0.25942668102444655
21
-4.2000000000000002
31
0
0
SPLINE
5
106
100
AcDbEntity
8
0
100
AcDbSpline
70
4
71
5
72
21
73
15
74
0
42
0.000000001
43
0.0000000001
44
0.0000000001
40
0
40
0
40
0
40
0
40
0
40
0
40
0.10000000000000001
40
0.20000000000000001
40
0.30000000000000004
40
0.40000000000000002
40
0.5
40
0.59999999999999998
40
0.69999999999999996
40
0.79999999999999993
40
0.89999999999999991
40
1
40
1
40
1
40
1
40
1
40
1
41
1
41
1
41
1
41
1
41
1
41
1
41
1
41
1
41
1
41
1
41
1
41
1
41
1
41
1
41
1
10
2.6811565715124691e-16
20
-5
30
0
10
0.093638299666790881
20
-4.9863317548836603
30
0
10
0.2771956679710994
20
-4.956751046141882
30
0
10
0.54137470549160205
20
-4.9056477367050437
30
0
10
0.87092642055017666
20
-4.8238204435184686
30
0
10
1.2424079453769987
20
-4.6971235226730927
30
0
10
1.5695232474232621
20
-4.5436556113837332
30
0
10
1.8481661658866033
20
-4.360939014126302
30
0
10
2.0752887042358901
20
-4.1471345415153484
30
0
10
2.2517013999429416
20
-3.9027312793812774
30
0
10
2.3807309537776553
20
-3.6297365898328375
30
0
10
2.448902399877976
20
-3.3901900173386021
30
0
10
2.4815299640086934
20
-3.1993664005839362
30
0
10
2.4951916425193583
20
-3.0672690563725928
30
0
10
2.5
20
-3.0000000000000004
30
0
0
SPLINE
5
107
100
AcDbEntity
8
0
100
AcDbSpline
70
4
71
5
72
21
73
15
74
0
42
0.000000001
43
0.0000000001
44
0.0000000001
40
0
40
0
40
0
40
0
40
0
40
0
40
0.10000000000000001
40
0.20000000000000001
40
0.30000000000000004
40
0.40000000000000002
40
0.5
40
0.59999999999999998
40
0.69999999999999996
40
0.79999999999999993
40
0.89999999999999991
40
1
40
1
40
1
40
1
40
1
40
1
41
1
41
1
41
1
41
1
41
1
41
1
41
1
41
1
41
1
41
1
41
1
41
1
41
1
41
1
41
1
10
0.25942668102444655
20
-4.2000000000000002
30
0
10
0.31480489825534241
20
-4.2063069014870198
30
0
10
0.42376448822371715
20
-4.216272897355088
30
0
10
0.58181350109902796
20
-4.2232787076806657
30
0
10
0.78158601526581939
20
-4.2164700044087908
30
0
10
1.0117968206940795
20
-4.1792170461129921
30
0
10
1.2207622361514001
20
-4.11065715238745
30
0
10
1.4067525114023358
20
-4.008241385368569
30
0
10
1.5688307012322906
20
-3.8705890745500153
30
0
10
1.7079517684272054
20
-3.6991074409017206
30
0
10
1.8258515587642292
20
-3.4963544046001847
30
0
10
1.9045890069284657
20
-3.3111899732762158
30
0
10
1.9554343400283396
20
-3.160221809713728
30
0
10
1.9857428601859572
20
-3.0542885932171919
30
0
10
2
20
-3.0000000000000004
30
0
0
LINE
5
108
100
AcDbEntity
8
0
100
AcDbLine
10
2
20
-3.0000000000000004
30
0
11
2.5
21
-3.0000000000000004
31
0
0
ENDSEC
0
SECTION
2
OBJECTS
0
DICTIONARY
5
C
100
AcDbDictionary
3
ACAD_GROUP
350
D
3
ACAD_MLINESTYLE
350
17
0
DICTIONARY
5
D
100
AcDbDictionary
0
DICTIONARY
5
1A
330
C
100
AcDbDictionary
0
DICTIONARY
5
17
100
AcDbDictionary
0
ENDSEC
0
EOF
