0
SECTION
2
HEADER
9
$INSUNITS
70
4
9
$ACADVER
1
AC1014
9
$HANDSEED
5
FFFF
0
ENDSEC
0
SECTION
2
TABLES
0
TABLE
2
VPORT
5
8
100
AcDbSymbolTable
0
ENDTAB
0
TABLE
2
LTYPE
5
5
100
AcDbSymbolTable
0
LTYPE
5
14
100
AcDbSymbolTableRecord
100
AcDbLinetypeTableRecord
2
BYBLOCK
70
0
0
LTYPE
5
15
100
AcDbSymbolTableRecord
100
AcDbLinetypeTableRecord
2
BYLAYER
70
0
0
LTYPE
5
16
100
AcDbSymbolTableRecord
100
AcDbLinetypeTableRecord
2
DASHED
70
0
3
Dashed __ __ __ __ __ __ __ __ __ __ __ __ __ _
72
65
73
2
40
0.75
49
0.5
74
0
49
-0.25
74
0
0
ENDTAB
0
TABLE
2
LAYER
5
2
100
AcDbSymbolTable
70
2
0
LAYER
5
50
100
AcDbSymbolTableRecord
100
AcDbLayerTableRecord
2
0
70
0
62
7
6
CONTINUOUS
0
ENDTAB
0
TABLE
2
STYLE
5
3
100
AcDbSymbolTable
70
1
0
STYLE
5
11
100
AcDbSymbolTableRecord
100
AcDbTextStyleTableRecord
2
STANDARD
70
0
0
ENDTAB
0
TABLE
2
VIEW
5
6
100
AcDbSymbolTable
70
0
0
ENDTAB
0
TABLE
2
UCS
5
7
100
AcDbSymbolTable
70
0
0
ENDTAB
0
TABLE
2
APPID
5
9
100
AcDbSymbolTable
70
2
0
APPID
5
12
100
AcDbSymbolTableRecord
100
AcDbRegAppTableRecord
2
ACAD
70
0
0
ENDTAB
0
TABLE
2
DIMSTYLE
5
A
100
AcDbSymbolTable
70
1
0
ENDTAB
0
TABLE
2
BLOCK_RECORD
5
1
100
AcDbSymbolTable
70
1
0
BLOCK_RECORD
5
1F
100
AcDbSymbolTableRecord
100
AcDbBlockTableRecord
2
*MODEL_SPACE
0
BLOCK_RECORD
5
1B
100
AcDbSymbolTableRecord
100
AcDbBlockTableRecord
2
*PAPER_SPACE
0
ENDTAB
0
ENDSEC
0
SECTION
2
BLOCKS
0
BLOCK
5
20
100
AcDbEntity
100
AcDbBlockBegin
2
*MODEL_SPACE
0
ENDBLK
5
21
100
AcDbEntity
100
AcDbBlockEnd
0
BLOCK
5
1C
100
AcDbEntity
100
AcDbBlockBegin
2
*PAPER_SPACE
0
ENDBLK
5
1D
100
AcDbEntity
100
AcDbBlockEnd
0
ENDSEC
0
SECTION
2
ENTITIES
0
POINT
5
100
100
AcDbEntity
8
0
100
AcDbPoint
10
0
20
0
30
0
0
POINT
5
101
100
AcDbEntity
8
0
100
AcDbPoint
10
0
20
0
30
0
0
POINT
5
102
100
AcDbEntity
8
0
100
AcDbPoint
10
0
20
0
30
0
0
POINT
5
103
100
AcDbEntity
8
0
100
AcDbPoint
10
0
20
0
30
0
0
LINE
5
104
100
AcDbEntity
8
0
100
AcDbLine
10
0
20
-5
30
0
11
0
21
0
31
0
0
LINE
5
105
100
AcDbEntity
8
0
100
AcDbLine
10
0
20
0
30
0
11
1
21
-5.2784696607901598e-17
31
0
0
LINE
5
106
100
AcDbEntity
8
0
100
AcDbLine
10
1
20
-5.2784696607901598e-17
30
0
11
0.25942668102444699
21
-4.2000000000000002
31
0
0
SPLINE
5
107
100
AcDbEntity
8
0
100
AcDbSpline
70
4
71
5
72
21
73
15
74
0
42
0.000000001
43
0.0000000001
44
0.0000000001
40
0
40
0
40
0
40
0
40
0
40
0
40
0.10000000000000001
40
0.20000000000000001
40
0.30000000000000004
40
0.40000000000000002
40
0.5
40
0.59999999999999998
40
0.69999999999999996
40
0.79999999999999993
40
0.89999999999999991
40
1
40
1
40
1
40
1
40
1
40
1
41
1
41
1
41
1
41
1
41
1
41
1
41
1
41
1
41
1
41
1
41
1
41
1
41
1
41
1
41
1
10
0
20
-5
30
0
10
0.18376164138311413
20
-4.9999052713915484
30
0
10
0.54116427637383768
20
-4.9964525478529627
30
0
10
1.0469079383699949
20
-4.9814841965148284
30
0
10
1.6594990528733753
20
-4.9416211741354523
30
0
10
2.3147426235767119
20
-4.8561646703147554
30
0
10
2.8476557388806385
20
-4.7312643617114816
30
0
10
3.2445570489519655
20
-4.5625088816738462
30
0
10
3.4929920366627485
20
-4.3458824392022422
30
0
10
3.5883625794352851
20
-4.0799024317148493
30
0
10
3.5373168338635201
20
-3.7667124676048029
30
0
10
3.3867417018570087
20
-3.4807767862006758
30
0
10
3.2156324105620451
20
-3.2475663326350812
30
0
10
3.0761176476515324
20
-3.083889298890139
30
0
10
3.0000000000000004
20
-3.0000000000000004
30
0
0
SPLINE
5
108
100
AcDbEntity
8
0
100
AcDbSpline
70
4
71
5
72
21
73
15
74
0
42
0.000000001
43
0.0000000001
44
0.0000000001
40
0
40
0
40
0
40
0
40
0
40
0
40
0.10000000000000001
40
0.20000000000000001
40
0.30000000000000004
40
0.40000000000000002
40
0.5
40
0.59999999999999998
40
0.69999999999999996
40
0.79999999999999993
40
0.89999999999999991
40
1
40
1
40
1
40
1
40
1
40
1
41
1
41
1
41
1
41
1
41
1
41
1
41
1
41
1
41
1
41
1
41
1
41
1
41
1
41
1
41
1
10
0.25942668102444699
20
-4.2000000000000002
30
0
10
0.40691559522638276
20
-4.225293063052395
30
0
10
0.69338530557094435
20
-4.2717946388608592
30
0
10
1.097567134836674
20
-4.3292941284137658
30
0
10
1.584577017699031
20
-4.3810445004209324
30
0
10
2.1005586254344513
20
-4.4011905796339068
30
0
10
2.5141137335392787
20
-4.3721640702054358
30
0
10
2.8144263974895498
20
-4.2887724878380737
30
0
10
2.9920576932723684
20
-4.1464844238681851
30
0
10
3.0450787922662812
20
-3.9443738923765999
30
0
10
2.9799230783082118
20
-3.6855294118438358
30
0
10
2.8395942309315378
20
-3.4361089986250732
30
0
10
2.6876618379390149
20
-3.2266309385403478
30
0
10
2.5659566308087571
20
-3.0771771963061685
30
0
10
2.5000000000000004
20
-3.0000000000000004
30
0
0
LINE
5
109
100
AcDbEntity
8
0
100
AcDbLine
10
2.5000000000000004
20
-3.0000000000000004
30
0
11
3.0000000000000004
21
-3.0000000000000004
31
0
0
ENDSEC
0
SECTION
2
OBJECTS
0
DICTIONARY
5
C
100
AcDbDictionary
3
ACAD_GROUP
350
D
3
ACAD_MLINESTYLE
350
17
0
DICTIONARY
5
D
100
AcDbDictionary
0
DICTIONARY
5
1A
330
C
100
AcDbDictionary
0
DICTIONARY
5
17
100
AcDbDictionary
0
ENDSEC
0
EOF
