0
SECTION
2
HEADER
9
$INSUNITS
70
4
9
$ACADVER
1
AC1014
9
$HANDSEED
5
FFFF
0
ENDSEC
0
SECTION
2
TABLES
0
TABLE
2
VPORT
5
8
100
AcDbSymbolTable
0
ENDTAB
0
TABLE
2
LTYPE
5
5
100
AcDbSymbolTable
0
LTYPE
5
14
100
AcDbSymbolTableRecord
100
AcDbLinetypeTableRecord
2
BYBLOCK
70
0
0
LTYPE
5
15
100
AcDbSymbolTableRecord
100
AcDbLinetypeTableRecord
2
BYLAYER
70
0
0
LTYPE
5
16
100
AcDbSymbolTableRecord
100
AcDbLinetypeTableRecord
2
DASHED
70
0
3
Dashed __ __ __ __ __ __ __ __ __ __ __ __ __ _
72
65
73
2
40
0.75
49
0.5
74
0
49
-0.25
74
0
0
ENDTAB
0
TABLE
2
LAYER
5
2
100
AcDbSymbolTable
70
2
0
LAYER
5
50
100
AcDbSymbolTableRecord
100
AcDbLayerTableRecord
2
0
70
0
62
7
6
CONTINUOUS
0
ENDTAB
0
TABLE
2
STYLE
5
3
100
AcDbSymbolTable
70
1
0
STYLE
5
11
100
AcDbSymbolTableRecord
100
AcDbTextStyleTableRecord
2
STANDARD
70
0
0
ENDTAB
0
TABLE
2
VIEW
5
6
100
AcDbSymbolTable
70
0
0
ENDTAB
0
TABLE
2
UCS
5
7
100
AcDbSymbolTable
70
0
0
ENDTAB
0
TABLE
2
APPID
5
9
100
AcDbSymbolTable
70
2
0
APPID
5
12
100
AcDbSymbolTableRecord
100
AcDbRegAppTableRecord
2
ACAD
70
0
0
ENDTAB
0
TABLE
2
DIMSTYLE
5
A
100
AcDbSymbolTable
70
1
0
ENDTAB
0
TABLE
2
BLOCK_RECORD
5
1
100
AcDbSymbolTable
70
1
0
BLOCK_RECORD
5
1F
100
AcDbSymbolTableRecord
100
AcDbBlockTableRecord
2
*MODEL_SPACE
0
BLOCK_RECORD
5
1B
100
AcDbSymbolTableRecord
100
AcDbBlockTableRecord
2
*PAPER_SPACE
0
ENDTAB
0
ENDSEC
0
SECTION
2
BLOCKS
0
BLOCK
5
20
100
AcDbEntity
100
AcDbBlockBegin
2
*MODEL_SPACE
0
ENDBLK
5
21
100
AcDbEntity
100
AcDbBlockEnd
0
BLOCK
5
1C
100
AcDbEntity
100
AcDbBlockBegin
2
*PAPER_SPACE
0
ENDBLK
5
1D
100
AcDbEntity
100
AcDbBlockEnd
0
ENDSEC
0
SECTION
2
ENTITIES
0
POINT
5
100
100
AcDbEntity
8
0
100
AcDbPoint
10
0
20
0
30
0
0
LINE
5
101
100
AcDbEntity
8
0
100
AcDbLine
10
0
20
0
30
0
11
-5.6418319057093428e-16
21
-5
31
0
0
LINE
5
102
100
AcDbEntity
8
0
100
AcDbLine
10
0
20
0
30
0
11
0.5
21
-8.0840581992418859e-18
31
0
0
LINE
5
103
100
AcDbEntity
8
0
100
AcDbLine
10
0.5
20
-8.0840581992418859e-18
30
0
11
1.2053079228338612
21
-4
31
0
0
SPLINE
5
104
100
AcDbEntity
8
0
100
AcDbSpline
70
4
71
5
72
21
73
15
74
0
42
0.000000001
43
0.0000000001
44
0.0000000001
40
0
40
0
40
0
40
0
40
0
40
0
40
0.10000000000000001
40
0.20000000000000001
40
0.30000000000000004
40
0.40000000000000002
40
0.5
40
0.59999999999999998
40
0.69999999999999996
40
0.79999999999999993
40
0.89999999999999991
40
1
40
1
40
1
40
1
40
1
40
1
41
1
41
1
41
1
41
1
41
1
41
1
41
1
41
1
41
1
41
1
41
1
41
1
41
1
41
1
41
1
10
-5.6418319057093428e-16
20
-5
30
0
10
0.18119267907744349
20
-4.9867134527131309
30
0
10
0.53376115245322697
20
-4.9579765072421083
30
0
10
1.0331645567005494
20
-4.9083798335864888
30
0
10
1.63915659288952
20
-4.8290522886075911
30
0
10
2.2893770338983992
20
-4.7062483474837364
30
0
10
2.820604262122699
20
-4.5572157629536303
30
0
10
3.2189971143393183
20
-4.3789036472746012
30
0
10
3.4716553037300377
20
-4.1684685019418497
30
0
10
3.5724899153879885
20
-3.9245682001738529
30
0
10
3.5270735762779353
20
-3.6484310678737359
30
0
10
3.3807987239290087
20
-3.4032878473399792
30
0
10
3.2127300314736074
20
-3.2065660797642281
30
0
10
3.0751634115380955
20
-3.0697929002793316
30
0
10
3.0000000000000004
20
-3.0000000000000004
30
0
0
SPLINE
5
105
100
AcDbEntity
8
0
100
AcDbSpline
70
4
71
5
72
21
73
15
74
0
42
0.000000001
43
0.0000000001
44
0.0000000001
40
0
40
0
40
0
40
0
40
0
40
0
40
0.10000000000000001
40
0.20000000000000001
40
0.30000000000000004
40
0.40000000000000002
40
0.5
40
0.59999999999999998
40
0.69999999999999996
40
0.79999999999999993
40
0.89999999999999991
40
1
40
1
40
1
40
1
40
1
40
1
41
1
41
1
41
1
41
1
41
1
41
1
41
1
41
1
41
1
41
1
41
1
41
1
41
1
41
1
41
1
10
1.2053079228338612
20
-4
30
0
10
1.2975810882289005
20
-4.0052716454139548
30
0
10
1.4765440782101864
20
-4.0136892711859264
30
0
10
1.728239651685717
20
-4.0199391376244611
30
0
10
2.0297752255148458
20
-4.0153056807529737
30
0
10
2.3458889935884359
20
-3.9863641802076466
30
0
10
2.5951060186740178
20
-3.9319540447012598
30
0
10
2.770830537734299
20
-3.8495641642221128
30
0
10
2.8676945993897847
20
-3.7371508758345935
30
0
10
2.8858048975255954
20
-3.5947547995673386
30
0
10
2.8298509067243103
20
-3.4241612916419224
30
0
10
2.7300701507320984
20
-3.2667404395774784
30
0
10
2.6261602264159603
20
-3.1376057385646785
30
0
10
2.544172427274916
20
-3.0466753229513137
30
0
10
2.5000000000000004
20
-3
30
0
0
LINE
5
106
100
AcDbEntity
8
0
100
AcDbLine
10
2.5000000000000004
20
-3
30
0
11
3.0000000000000004
21
-3.0000000000000004
31
0
0
ENDSEC
0
SECTION
2
OBJECTS
0
DICTIONARY
5
C
100
AcDbDictionary
3
ACAD_GROUP
350
D
3
ACAD_MLINESTYLE
350
17
0
DICTIONARY
5
D
100
AcDbDictionary
0
DICTIONARY
5
1A
330
C
100
AcDbDictionary
0
DICTIONARY
5
17
100
AcDbDictionary
0
ENDSEC
0
EOF
