0
SECTION
2
HEADER
9
$INSUNITS
70
4
9
$ACADVER
1
AC1014
9
$HANDSEED
5
FFFF
0
ENDSEC
0
SECTION
2
TABLES
0
TABLE
2
VPORT
5
8
100
AcDbSymbolTable
0
ENDTAB
0
TABLE
2
LTYPE
5
5
100
AcDbSymbolTable
0
LTYPE
5
14
100
AcDbSymbolTableRecord
100
AcDbLinetypeTableRecord
2
BYBLOCK
70
0
0
LTYPE
5
15
100
AcDbSymbolTableRecord
100
AcDbLinetypeTableRecord
2
BYLAYER
70
0
0
LTYPE
5
16
100
AcDbSymbolTableRecord
100
AcDbLinetypeTableRecord
2
DASHED
70
0
3
Dashed __ __ __ __ __ __ __ __ __ __ __ __ __ _
72
65
73
2
40
0.75
49
0.5
74
0
49
-0.25
74
0
0
ENDTAB
0
TABLE
2
LAYER
5
2
100
AcDbSymbolTable
70
2
0
LAYER
5
50
100
AcDbSymbolTableRecord
100
AcDbLayerTableRecord
2
0
70
0
62
7
6
CONTINUOUS
0
ENDTAB
0
TABLE
2
STYLE
5
3
100
AcDbSymbolTable
70
1
0
STYLE
5
11
100
AcDbSymbolTableRecord
100
AcDbTextStyleTableRecord
2
STANDARD
70
0
0
ENDTAB
0
TABLE
2
VIEW
5
6
100
AcDbSymbolTable
70
0
0
ENDTAB
0
TABLE
2
UCS
5
7
100
AcDbSymbolTable
70
0
0
ENDTAB
0
TABLE
2
APPID
5
9
100
AcDbSymbolTable
70
2
0
APPID
5
12
100
AcDbSymbolTableRecord
100
AcDbRegAppTableRecord
2
ACAD
70
0
0
ENDTAB
0
TABLE
2
DIMSTYLE
5
A
100
AcDbSymbolTable
70
1
0
ENDTAB
0
TABLE
2
BLOCK_RECORD
5
1
100
AcDbSymbolTable
70
1
0
BLOCK_RECORD
5
1F
100
AcDbSymbolTableRecord
100
AcDbBlockTableRecord
2
*MODEL_SPACE
0
BLOCK_RECORD
5
1B
100
AcDbSymbolTableRecord
100
AcDbBlockTableRecord
2
*PAPER_SPACE
0
ENDTAB
0
ENDSEC
0
SECTION
2
BLOCKS
0
BLOCK
5
20
100
AcDbEntity
100
AcDbBlockBegin
2
*MODEL_SPACE
0
ENDBLK
5
21
100
AcDbEntity
100
AcDbBlockEnd
0
BLOCK
5
1C
100
AcDbEntity
100
AcDbBlockBegin
2
*PAPER_SPACE
0
ENDBLK
5
1D
100
AcDbEntity
100
AcDbBlockEnd
0
ENDSEC
0
SECTION
2
ENTITIES
0
POINT
5
100
100
AcDbEntity
8
0
100
AcDbPoint
10
0
20
0
30
0
0
POINT
5
101
100
AcDbEntity
8
0
100
AcDbPoint
10
0
20
0
30
0
0
POINT
5
102
100
AcDbEntity
8
0
100
AcDbPoint
10
0
20
0
30
0
0
LINE
5
103
100
AcDbEntity
8
0
100
AcDbLine
10
2.5688259317428909e-16
20
-5
30
0
11
0
21
0
31
0
0
LINE
5
104
100
AcDbEntity
8
0
100
AcDbLine
10
0
20
0
30
0
11
0.5
21
0
31
0
0
SPLINE
5
105
100
AcDbEntity
8
0
100
AcDbSpline
70
4
71
5
72
21
73
15
74
0
42
0.000000001
43
0.0000000001
44
0.0000000001
40
0
40
0
40
0
40
0
40
0
40
0
40
0.10000000000000001
40
0.20000000000000001
40
0.30000000000000004
40
0.40000000000000002
40
0.5
40
0.59999999999999998
40
0.69999999999999996
40
0.79999999999999993
40
0.89999999999999991
40
1
40
1
40
1
40
1
40
1
40
1
41
1
41
1
41
1
41
1
41
1
41
1
41
1
41
1
41
1
41
1
41
1
41
1
41
1
41
1
41
1
10
2.5688259317428909e-16
20
-5
30
0
10
0.18337536316535719
20
-4.9817399754573426
30
0
10
0.54331570593240464
20
-4.9426272970987828
30
0
10
1.0627961620996527
20
-4.8761808077215338
30
0
10
1.7138950308687553
20
-4.7717710591938909
30
0
10
2.4534066743812204
20
-4.6129501964990141
30
0
10
3.1105720553797207
20
-4.4227811243089619
30
0
10
3.6761378403181273
20
-4.1977412123373989
30
0
10
4.1416549423909776
20
-3.9346139971417293
30
0
10
4.5038955968811738
20
-3.6321707083887995
30
0
10
4.7672671679955263
20
-3.2920891754332926
30
0
10
4.9038361559004127
20
-2.9918042286551794
30
0
10
4.9669578907189873
20
-2.751627586097193
30
0
10
4.9918506126358206
20
-2.5849663987027105
30
0
10
5
20
-2.5
30
0
0
SPLINE
5
106
100
AcDbEntity
8
0
100
AcDbSpline
70
4
71
5
72
21
73
15
74
0
42
0.000000001
43
0.0000000001
44
0.0000000001
40
0
40
0
40
0
40
0
40
0
40
0
40
0.10000000000000001
40
0.20000000000000001
40
0.30000000000000004
40
0.40000000000000002
40
0.5
40
0.59999999999999998
40
0.69999999999999996
40
0.79999999999999993
40
0.89999999999999991
40
1
40
1
40
1
40
1
40
1
40
1
41
1
41
1
41
1
41
1
41
1
41
1
41
1
41
1
41
1
41
1
41
1
41
1
41
1
41
1
41
1
10
1.2
20
-4
30
0
10
1.3045439646931127
20
-3.992964554207072
30
0
10
1.5103867860385078
20
-3.976960222195276
30
0
10
1.8094163383386463
20
-3.9471537868369895
30
0
10
2.1883271726897546
20
-3.8956178409482294
30
0
10
2.6266276088193727
20
-3.8101434095011295
30
0
10
3.0260588471417886
20
-3.7015106494508498
30
0
10
3.3828055764901572
20
-3.5674463924610329
30
0
10
3.6937797315154919
20
-3.4061107643864568
30
0
10
3.9590917199499081
20
-3.2175695463261049
30
0
10
4.1814815590461087
20
-3.0034552448276255
30
0
10
4.3275189158267207
20
-2.8131729182392098
30
0
10
4.4202042093879301
20
-2.6604262520874693
30
0
10
4.4746289424361549
20
-2.5542067871937086
30
0
10
4.5
20
-2.5
30
0
0
LINE
5
107
100
AcDbEntity
8
0
100
AcDbLine
10
4.5
20
-2.5
30
0
11
5
21
-2.5
31
0
0
SPLINE
5
108
100
AcDbEntity
8
0
100
AcDbSpline
70
4
71
5
72
21
73
15
74
0
42
0.000000001
43
0.0000000001
44
0.0000000001
40
0
40
0
40
0
40
0
40
0
40
0
40
0.10000000000000001
40
0.20000000000000001
40
0.30000000000000004
40
0.40000000000000002
40
0.5
40
0.59999999999999998
40
0.69999999999999996
40
0.79999999999999993
40
0.89999999999999991
40
1
40
1
40
1
40
1
40
1
40
1
41
1
41
1
41
1
41
1
41
1
41
1
41
1
41
1
41
1
41
1
41
1
41
1
41
1
41
1
41
1
10
0.5
20
0
30
0
10
0.48591236613731337
20
-0.11236857791378201
30
0
10
0.4600990305204275
20
-0.33438381049745164
30
0
10
0.42846435326211896
20
-0.65924143145838043
30
0
10
0.4006926321089147
20
-1.0757811220716464
30
0
10
0.39170130629047784
20
-1.5668118189555782
30
0
10
0.41101176359045227
20
-2.0252271493603398
30
0
10
0.46141774363616389
20
-2.447807569081653
30
0
10
0.54519618465256747
20
-2.8319291030024001
30
0
10
0.66231132267764603
20
-3.1776329660069091
30
0
10
0.81078218047265649
20
-3.4872020636758068
30
0
10
0.95285285431401534
20
-3.7080130281727004
30
0
10
1.0717160078083217
20
-3.8594348665224771
30
0
10
1.1563414712763758
20
-3.9541788988893485
30
0
10
1.2
20
-4
30
0
0
ENDSEC
0
SECTION
2
OBJECTS
0
DICTIONARY
5
C
100
AcDbDictionary
3
ACAD_GROUP
350
D
3
ACAD_MLINESTYLE
350
17
0
DICTIONARY
5
D
100
AcDbDictionary
0
DICTIONARY
5
1A
330
C
100
AcDbDictionary
0
DICTIONARY
5
17
100
AcDbDictionary
0
ENDSEC
0
EOF
