0
SECTION
2
HEADER
9
$INSUNITS
70
4
9
$ACADVER
1
AC1014
9
$HANDSEED
5
FFFF
0
ENDSEC
0
SECTION
2
TABLES
0
TABLE
2
VPORT
5
8
100
AcDbSymbolTable
0
ENDTAB
0
TABLE
2
LTYPE
5
5
100
AcDbSymbolTable
0
LTYPE
5
14
100
AcDbSymbolTableRecord
100
AcDbLinetypeTableRecord
2
BYBLOCK
70
0
0
LTYPE
5
15
100
AcDbSymbolTableRecord
100
AcDbLinetypeTableRecord
2
BYLAYER
70
0
0
LTYPE
5
16
100
AcDbSymbolTableRecord
100
AcDbLinetypeTableRecord
2
DASHED
70
0
3
Dashed __ __ __ __ __ __ __ __ __ __ __ __ __ _
72
65
73
2
40
0.75
49
0.5
74
0
49
-0.25
74
0
0
ENDTAB
0
TABLE
2
LAYER
5
2
100
AcDbSymbolTable
70
2
0
LAYER
5
50
100
AcDbSymbolTableRecord
100
AcDbLayerTableRecord
2
0
70
0
62
7
6
CONTINUOUS
0
ENDTAB
0
TABLE
2
STYLE
5
3
100
AcDbSymbolTable
70
1
0
STYLE
5
11
100
AcDbSymbolTableRecord
100
AcDbTextStyleTableRecord
2
STANDARD
70
0
0
ENDTAB
0
TABLE
2
VIEW
5
6
100
AcDbSymbolTable
70
0
0
ENDTAB
0
TABLE
2
UCS
5
7
100
AcDbSymbolTable
70
0
0
ENDTAB
0
TABLE
2
APPID
5
9
100
AcDbSymbolTable
70
2
0
APPID
5
12
100
AcDbSymbolTableRecord
100
AcDbRegAppTableRecord
2
ACAD
70
0
0
ENDTAB
0
TABLE
2
DIMSTYLE
5
A
100
AcDbSymbolTable
70
1
0
ENDTAB
0
TABLE
2
BLOCK_RECORD
5
1
100
AcDbSymbolTable
70
1
0
BLOCK_RECORD
5
1F
100
AcDbSymbolTableRecord
100
AcDbBlockTableRecord
2
*MODEL_SPACE
0
BLOCK_RECORD
5
1B
100
AcDbSymbolTableRecord
100
AcDbBlockTableRecord
2
*PAPER_SPACE
0
ENDTAB
0
ENDSEC
0
SECTION
2
BLOCKS
0
BLOCK
5
20
100
AcDbEntity
100
AcDbBlockBegin
2
*MODEL_SPACE
0
ENDBLK
5
21
100
AcDbEntity
100
AcDbBlockEnd
0
BLOCK
5
1C
100
AcDbEntity
100
AcDbBlockBegin
2
*PAPER_SPACE
0
ENDBLK
5
1D
100
AcDbEntity
100
AcDbBlockEnd
0
ENDSEC
0
SECTION
2
ENTITIES
0
POINT
5
100
100
AcDbEntity
8
0
100
AcDbPoint
10
0
20
0
30
0
0
POINT
5
101
100
AcDbEntity
8
0
100
AcDbPoint
10
0
20
0
30
0
0
POINT
5
102
100
AcDbEntity
8
0
100
AcDbPoint
10
0
20
0
30
0
0
LINE
5
103
100
AcDbEntity
8
0
100
AcDbLine
10
0
20
-5
30
0
11
0
21
0
31
0
0
LINE
5
104
100
AcDbEntity
8
0
100
AcDbLine
10
0
20
0
30
0
11
1
21
0
31
0
0
SPLINE
5
105
100
AcDbEntity
8
0
100
AcDbSpline
70
4
71
5
72
21
73
15
74
0
42
0.000000001
43
0.0000000001
44
0.0000000001
40
0
40
0
40
0
40
0
40
0
40
0
40
0.10000000000000001
40
0.20000000000000001
40
0.30000000000000004
40
0.40000000000000002
40
0.5
40
0.59999999999999998
40
0.69999999999999996
40
0.79999999999999993
40
0.89999999999999991
40
1
40
1
40
1
40
1
40
1
40
1
41
1
41
1
41
1
41
1
41
1
41
1
41
1
41
1
41
1
41
1
41
1
41
1
41
1
41
1
41
1
10
0
20
-5
30
0
10
0.18337536316501563
20
-4.9817399754573426
30
0
10
0.54331570593145861
20
-4.9426272970987828
30
0
10
1.0627961620980344
20
-4.8761808077215338
30
0
10
1.7138950308666911
20
-4.7717710591938909
30
0
10
2.4534066743792331
20
-4.6129501964990141
30
0
10
3.1105720553782823
20
-4.4227811243089619
30
0
10
3.6761378403175096
20
-4.1977412123373989
30
0
10
4.1416549423912343
20
-3.9346139971417293
30
0
10
4.5038955968821366
20
-3.6321707083887995
30
0
10
4.7672671679968248
20
-3.2920891754332926
30
0
10
4.9038361559015389
20
-2.9918042286551794
30
0
10
4.9669578907196783
20
-2.751627586097193
30
0
10
4.9918506126360747
20
-2.5849663987027105
30
0
10
5
20
-2.5
30
0
0
SPLINE
5
106
100
AcDbEntity
8
0
100
AcDbSpline
70
4
71
5
72
21
73
15
74
0
42
0.000000001
43
0.0000000001
44
0.0000000001
40
0
40
0
40
0
40
0
40
0
40
0
40
0.10000000000000001
40
0.20000000000000001
40
0.30000000000000004
40
0.40000000000000002
40
0.5
40
0.59999999999999998
40
0.69999999999999996
40
0.79999999999999993
40
0.89999999999999991
40
1
40
1
40
1
40
1
40
1
40
1
41
1
41
1
41
1
41
1
41
1
41
1
41
1
41
1
41
1
41
1
41
1
41
1
41
1
41
1
41
1
10
0.29999999999999999
20
-4.2000000000000002
30
0
10
0.44360154177962496
20
-4.185623452525987
30
0
10
0.72591820677990015
20
-4.1552615333804042
30
0
10
1.1347347771119536
20
-4.1048924548508579
30
0
10
1.650017233555146
20
-4.0279201354704872
30
0
10
2.2407834830248099
20
-3.9141439056814735
30
0
10
2.7725318937805361
20
-3.780936404122702
30
0
10
3.2387333639922637
20
-3.6261479629180244
30
0
10
3.6334867002006312
20
-3.4478356492812305
30
0
10
3.9547894556108738
20
-3.2453401695365116
30
0
10
4.2059558331176854
20
-3.0197527052414603
30
0
10
4.3543642641793152
20
-2.8219892988409261
30
0
10
4.4378338699922679
20
-2.66450167066141
30
0
10
4.4813067968719711
20
-2.5555018737710027
30
0
10
4.5
20
-2.5
30
0
0
LINE
5
107
100
AcDbEntity
8
0
100
AcDbLine
10
4.5
20
-2.5
30
0
11
5
21
-2.5
31
0
0
SPLINE
5
108
100
AcDbEntity
8
0
100
AcDbSpline
70
4
71
5
72
21
73
15
74
0
42
0.000000001
43
0.0000000001
44
0.0000000001
40
0
40
0
40
0
40
0
40
0
40
0
40
0.10000000000000001
40
0.20000000000000001
40
0.30000000000000004
40
0.40000000000000002
40
0.5
40
0.59999999999999998
40
0.69999999999999996
40
0.79999999999999993
40
0.89999999999999991
40
1
40
1
40
1
40
1
40
1
40
1
41
1
41
1
41
1
41
1
41
1
41
1
41
1
41
1
41
1
41
1
41
1
41
1
41
1
41
1
41
1
10
0.29999999999999999
20
-4.2000000000000002
30
0
10
0.32769850815508694
20
-4.0631007551529077
30
0
10
0.38199353182770257
20
-3.7935578075724092
30
0
10
0.4601302185805769
20
-3.402009513781219
30
0
10
0.55759089125879258
20
-2.9059016939542937
30
0
10
0.6673678555833098
20
-2.3322958157547653
30
0
10
0.76376037996847268
20
-1.8103763516867915
30
0
10
0.84516849358926793
20
-1.3463218759053606
30
0
10
0.91007857430533989
20
-0.94597751164045507
30
0
10
0.9576750514520771
20
-0.61249273121447556
30
0
10
0.98850060694696595
20
-0.34377187112140134
30
0
10
1.0005265333047444
20
-0.17758563932890128
30
0
10
1.0028319861681181
20
-0.07887324878298177
30
0
10
1.0014332757718616
20
-0.024401639021752693
30
0
10
1
20
0
30
0
0
ENDSEC
0
SECTION
2
OBJECTS
0
DICTIONARY
5
C
100
AcDbDictionary
3
ACAD_GROUP
350
D
3
ACAD_MLINESTYLE
350
17
0
DICTIONARY
5
D
100
AcDbDictionary
0
DICTIONARY
5
1A
330
C
100
AcDbDictionary
0
DICTIONARY
5
17
100
AcDbDictionary
0
ENDSEC
0
EOF
