0
SECTION
2
HEADER
9
$INSUNITS
70
4
9
$ACADVER
1
AC1014
9
$HANDSEED
5
FFFF
0
ENDSEC
0
SECTION
2
TABLES
0
TABLE
2
VPORT
5
8
100
AcDbSymbolTable
0
ENDTAB
0
TABLE
2
LTYPE
5
5
100
AcDbSymbolTable
0
LTYPE
5
14
100
AcDbSymbolTableRecord
100
AcDbLinetypeTableRecord
2
BYBLOCK
70
0
0
LTYPE
5
15
100
AcDbSymbolTableRecord
100
AcDbLinetypeTableRecord
2
BYLAYER
70
0
0
LTYPE
5
16
100
AcDbSymbolTableRecord
100
AcDbLinetypeTableRecord
2
DASHED
70
0
3
Dashed __ __ __ __ __ __ __ __ __ __ __ __ __ _
72
65
73
2
40
0.75
49
0.5
74
0
49
-0.25
74
0
0
ENDTAB
0
TABLE
2
LAYER
5
2
100
AcDbSymbolTable
70
2
0
LAYER
5
50
100
AcDbSymbolTableRecord
100
AcDbLayerTableRecord
2
0
70
0
62
7
6
CONTINUOUS
0
ENDTAB
0
TABLE
2
STYLE
5
3
100
AcDbSymbolTable
70
1
0
STYLE
5
11
100
AcDbSymbolTableRecord
100
AcDbTextStyleTableRecord
2
STANDARD
70
0
0
ENDTAB
0
TABLE
2
VIEW
5
6
100
AcDbSymbolTable
70
0
0
ENDTAB
0
TABLE
2
UCS
5
7
100
AcDbSymbolTable
70
0
0
ENDTAB
0
TABLE
2
APPID
5
9
100
AcDbSymbolTable
70
2
0
APPID
5
12
100
AcDbSymbolTableRecord
100
AcDbRegAppTableRecord
2
ACAD
70
0
0
ENDTAB
0
TABLE
2
DIMSTYLE
5
A
100
AcDbSymbolTable
70
1
0
ENDTAB
0
TABLE
2
BLOCK_RECORD
5
1
100
AcDbSymbolTable
70
1
0
BLOCK_RECORD
5
1F
100
AcDbSymbolTableRecord
100
AcDbBlockTableRecord
2
*MODEL_SPACE
0
BLOCK_RECORD
5
1B
100
AcDbSymbolTableRecord
100
AcDbBlockTableRecord
2
*PAPER_SPACE
0
ENDTAB
0
ENDSEC
0
SECTION
2
BLOCKS
0
BLOCK
5
20
100
AcDbEntity
100
AcDbBlockBegin
2
*MODEL_SPACE
0
ENDBLK
5
21
100
AcDbEntity
100
AcDbBlockEnd
0
BLOCK
5
1C
100
AcDbEntity
100
AcDbBlockBegin
2
*PAPER_SPACE
0
ENDBLK
5
1D
100
AcDbEntity
100
AcDbBlockEnd
0
ENDSEC
0
SECTION
2
ENTITIES
0
POINT
5
100
100
AcDbEntity
8
0
100
AcDbPoint
10
0
20
0
30
0
0
LINE
5
101
100
AcDbEntity
8
0
100
AcDbLine
10
0
20
-5
30
0
11
0
21
0
31
0
0
LINE
5
102
100
AcDbEntity
8
0
100
AcDbLine
10
0
20
0
30
0
11
0.5
21
1.9259299443872359e-33
31
0
0
SPLINE
5
103
100
AcDbEntity
8
0
100
AcDbSpline
70
4
71
5
72
21
73
15
74
0
42
0.000000001
43
0.0000000001
44
0.0000000001
40
0
40
0
40
0
40
0
40
0
40
0
40
0.10000000000000001
40
0.20000000000000001
40
0.30000000000000004
40
0.40000000000000002
40
0.5
40
0.59999999999999998
40
0.69999999999999996
40
0.79999999999999993
40
0.89999999999999991
40
1
40
1
40
1
40
1
40
1
40
1
41
1
41
1
41
1
41
1
41
1
41
1
41
1
41
1
41
1
41
1
41
1
41
1
41
1
41
1
41
1
10
0.5
20
1.9259299443872359e-33
30
0
10
0.48103809770129963
20
-0.079999999999626356
30
0
10
0.44477022699568908
20
-0.2399999999989782
30
0
10
0.39533607036904661
20
-0.4799999999983095
30
0
10
0.33952393094441397
20
-0.79999999999797167
30
0
10
0.28773465263745135
20
-1.1999999999982733
30
0
10
0.25552775901493469
20
-1.5999999999990404
30
0
10
0.24450132160518107
20
-2.0000000000000115
30
0
10
0.25552775901517072
20
-2.4000000000009361
30
0
10
0.28773465263786402
20
-2.8000000000015959
30
0
10
0.33952393094488753
20
-3.200000000001793
30
0
10
0.39533607036943375
20
-3.5200000000014549
30
0
10
0.44477022699592
20
-3.7600000000008627
30
0
10
0.48103809770138367
20
-3.9200000000003135
30
0
10
0.5
20
-4
30
0
0
SPLINE
5
104
100
AcDbEntity
8
0
100
AcDbSpline
70
4
71
5
72
21
73
15
74
0
42
0.000000001
43
0.0000000001
44
0.0000000001
40
0
40
0
40
0
40
0
40
0
40
0
40
0.10000000000000001
40
0.20000000000000001
40
0.30000000000000004
40
0.40000000000000002
40
0.5
40
0.59999999999999998
40
0.69999999999999996
40
0.79999999999999993
40
0.89999999999999991
40
1
40
1
40
1
40
1
40
1
40
1
41
1
41
1
41
1
41
1
41
1
41
1
41
1
41
1
41
1
41
1
41
1
41
1
41
1
41
1
41
1
10
0.5
20
-4
30
0
10
0.55744437822797932
20
-4.0035161541970785
30
0
10
0.66992123491298217
20
-4.00760295572048
30
0
10
0.83140096348148018
20
-4.0048968118520616
30
0
10
1.0319968444517003
20
-3.9833236718732898
30
0
10
1.2565736484277015
20
-3.9243997983123409
30
0
10
1.452695930888102
20
-3.8307261438382287
30
0
10
1.6181226497155099
20
-3.6995658596678571
30
0
10
1.7517801201958052
20
-3.5296077197960458
30
0
10
1.8550990778239993
20
-3.3225989946864045
30
0
10
1.9304415965456279
20
-3.0814243419517533
30
0
10
1.9702071370631167
20
-2.8634388640682511
30
0
10
1.9892339019673446
20
-2.6867635576894644
30
0
10
1.9971980581820166
20
-2.5632153384673746
30
0
10
2
20
-2.5
30
0
0
SPLINE
5
105
100
AcDbEntity
8
0
100
AcDbSpline
70
4
71
5
72
21
73
15
74
0
42
0.000000001
43
0.0000000001
44
0.0000000001
40
0
40
0
40
0
40
0
40
0
40
0
40
0.10000000000000001
40
0.20000000000000001
40
0.30000000000000004
40
0.40000000000000002
40
0.5
40
0.59999999999999998
40
0.69999999999999996
40
0.79999999999999993
40
0.89999999999999991
40
1
40
1
40
1
40
1
40
1
40
1
41
1
41
1
41
1
41
1
41
1
41
1
41
1
41
1
41
1
41
1
41
1
41
1
41
1
41
1
41
1
10
0
20
-5
30
0
10
0.1008926721130888
20
-4.9737551203425561
30
0
10
0.29834453122225912
20
-4.9192426246260936
30
0
10
0.58152266320627921
20
-4.8314060446416542
30
0
10
0.9326595489980144
20
-4.7019520537450976
30
0
10
1.3244368492494496
20
-4.5181292987096784
30
0
10
1.6645041794566833
20
-4.3101699340150876
30
0
10
1.9480538801374876
20
-4.0758298933778141
30
0
10
2.1714895700451624
20
-3.8134304976134188
30
0
10
2.3356977843144477
20
-3.5233855538169507
30
0
10
2.4445400278731606
20
-3.207497492681183
30
0
10
2.4906443848401514
20
-2.9356637812906006
30
0
10
2.5035966673928107
20
-2.721694158838222
30
0
10
2.502774960157343
20
-2.5746337140019273
30
0
10
2.5
20
-2.5
30
0
0
LINE
5
106
100
AcDbEntity
8
0
100
AcDbLine
10
2
20
-2.5
30
0
11
2.5
21
-2.5
31
0
0
ENDSEC
0
SECTION
2
OBJECTS
0
DICTIONARY
5
C
100
AcDbDictionary
3
ACAD_GROUP
350
D
3
ACAD_MLINESTYLE
350
17
0
DICTIONARY
5
D
100
AcDbDictionary
0
DICTIONARY
5
1A
330
C
100
AcDbDictionary
0
DICTIONARY
5
17
100
AcDbDictionary
0
ENDSEC
0
EOF
