0
SECTION
2
HEADER
9
$INSUNITS
70
4
9
$ACADVER
1
AC1014
9
$HANDSEED
5
FFFF
0
ENDSEC
0
SECTION
2
TABLES
0
TABLE
2
VPORT
5
8
100
AcDbSymbolTable
0
ENDTAB
0
TABLE
2
LTYPE
5
5
100
AcDbSymbolTable
0
LTYPE
5
14
100
AcDbSymbolTableRecord
100
AcDbLinetypeTableRecord
2
BYBLOCK
70
0
0
LTYPE
5
15
100
AcDbSymbolTableRecord
100
AcDbLinetypeTableRecord
2
BYLAYER
70
0
0
LTYPE
5
16
100
AcDbSymbolTableRecord
100
AcDbLinetypeTableRecord
2
DASHED
70
0
3
Dashed __ __ __ __ __ __ __ __ __ __ __ __ __ _
72
65
73
2
40
0.75
49
0.5
74
0
49
-0.25
74
0
0
ENDTAB
0
TABLE
2
LAYER
5
2
100
AcDbSymbolTable
70
2
0
LAYER
5
50
100
AcDbSymbolTableRecord
100
AcDbLayerTableRecord
2
0
70
0
62
7
6
CONTINUOUS
0
ENDTAB
0
TABLE
2
STYLE
5
3
100
AcDbSymbolTable
70
1
0
STYLE
5
11
100
AcDbSymbolTableRecord
100
AcDbTextStyleTableRecord
2
STANDARD
70
0
0
ENDTAB
0
TABLE
2
VIEW
5
6
100
AcDbSymbolTable
70
0
0
ENDTAB
0
TABLE
2
UCS
5
7
100
AcDbSymbolTable
70
0
0
ENDTAB
0
TABLE
2
APPID
5
9
100
AcDbSymbolTable
70
2
0
APPID
5
12
100
AcDbSymbolTableRecord
100
AcDbRegAppTableRecord
2
ACAD
70
0
0
ENDTAB
0
TABLE
2
DIMSTYLE
5
A
100
AcDbSymbolTable
70
1
0
ENDTAB
0
TABLE
2
BLOCK_RECORD
5
1
100
AcDbSymbolTable
70
1
0
BLOCK_RECORD
5
1F
100
AcDbSymbolTableRecord
100
AcDbBlockTableRecord
2
*MODEL_SPACE
0
BLOCK_RECORD
5
1B
100
AcDbSymbolTableRecord
100
AcDbBlockTableRecord
2
*PAPER_SPACE
0
ENDTAB
0
ENDSEC
0
SECTION
2
BLOCKS
0
BLOCK
5
20
100
AcDbEntity
100
AcDbBlockBegin
2
*MODEL_SPACE
0
ENDBLK
5
21
100
AcDbEntity
100
AcDbBlockEnd
0
BLOCK
5
1C
100
AcDbEntity
100
AcDbBlockBegin
2
*PAPER_SPACE
0
ENDBLK
5
1D
100
AcDbEntity
100
AcDbBlockEnd
0
ENDSEC
0
SECTION
2
ENTITIES
0
POINT
5
100
100
AcDbEntity
8
0
100
AcDbPoint
10
0
20
0
30
0
0
POINT
5
101
100
AcDbEntity
8
0
100
AcDbPoint
10
0
20
0
30
0
0
POINT
5
102
100
AcDbEntity
8
0
100
AcDbPoint
10
0
20
0
30
0
0
POINT
5
103
100
AcDbEntity
8
0
100
AcDbPoint
10
0
20
0
30
0
0
LINE
5
104
100
AcDbEntity
8
0
100
AcDbLine
10
0
20
-5
30
0
11
0
21
0
31
0
0
LINE
5
105
100
AcDbEntity
8
0
100
AcDbLine
10
0
20
0
30
0
11
1
21
0
31
0
0
SPLINE
5
106
100
AcDbEntity
8
0
100
AcDbSpline
70
4
71
5
72
21
73
15
74
0
42
0.000000001
43
0.0000000001
44
0.0000000001
40
0
40
0
40
0
40
0
40
0
40
0
40
0.10000000000000001
40
0.20000000000000001
40
0.30000000000000004
40
0.40000000000000002
40
0.5
40
0.59999999999999998
40
0.69999999999999996
40
0.79999999999999993
40
0.89999999999999991
40
1
40
1
40
1
40
1
40
1
40
1
41
1
41
1
41
1
41
1
41
1
41
1
41
1
41
1
41
1
41
1
41
1
41
1
41
1
41
1
41
1
10
1
20
0
30
0
10
0.96880303968694181
20
-0.013044465172639328
30
0
10
0.90795544583313426
20
-0.045907533444130573
30
0
10
0.82132298107227908
20
-0.11552431176576139
30
0
10
0.71524400896522111
20
-0.24966186060408804
30
0
10
0.59927427695092095
20
-0.49018193408468447
30
0
10
0.50094361440401802
20
-0.80797512447901332
30
0
10
0.42076870545435896
20
-1.2053049181490494
30
0
10
0.35783172613086972
20
-1.6781505180140761
30
0
10
0.31052341862227534
20
-2.2194620982754776
30
0
10
0.27715481100922529
20
-2.8218406221059444
30
0
10
0.26049182235299517
20
-3.3476911099935918
30
0
10
0.25323951735001982
20
-3.7650559584131664
30
0
10
0.25069765718174397
20
-4.0533443927537212
30
0
10
0.25
20
-4.2000000000000002
30
0
0
SPLINE
5
107
100
AcDbEntity
8
0
100
AcDbSpline
70
4
71
5
72
21
73
15
74
0
42
0.000000001
43
0.0000000001
44
0.0000000001
40
0
40
0
40
0
40
0
40
0
40
0
40
0.10000000000000001
40
0.20000000000000001
40
0.30000000000000004
40
0.40000000000000002
40
0.5
40
0.59999999999999998
40
0.69999999999999996
40
0.79999999999999993
40
0.89999999999999991
40
1
40
1
40
1
40
1
40
1
40
1
41
1
41
1
41
1
41
1
41
1
41
1
41
1
41
1
41
1
41
1
41
1
41
1
41
1
41
1
41
1
10
0.25
20
-4.2000000000000002
30
0
10
0.39792367938878909
20
-4.2253156764530395
30
0
10
0.68524492108737445
20
-4.2718617573036362
30
0
10
1.0906500502285865
20
-4.3294258375932566
30
0
10
1.5791812299997046
20
-4.3812579392804523
30
0
10
2.0968658499261847
20
-4.4014971933088889
30
0
10
2.5118983063078844
20
-4.3725508671615056
30
0
10
2.8134251848073539
20
-4.2892185689253779
30
0
10
2.9919648451685403
20
-4.1469571895127908
30
0
10
3.0455436207997897
20
-3.9448210504980032
30
0
10
2.9805927484263108
20
-3.68589166617789
30
0
10
2.8401565145631351
20
-3.4363552814785354
30
0
10
2.6879984973691053
20
-3.226764088167017
30
0
10
2.5660794250328851
20
-3.0772234857727208
30
0
10
2.5
20
-3
30
0
0
SPLINE
5
108
100
AcDbEntity
8
0
100
AcDbSpline
70
4
71
5
72
21
73
15
74
0
42
0.000000001
43
0.0000000001
44
0.0000000001
40
0
40
0
40
0
40
0
40
0
40
0
40
0.10000000000000001
40
0.20000000000000001
40
0.30000000000000004
40
0.40000000000000002
40
0.5
40
0.59999999999999998
40
0.69999999999999996
40
0.79999999999999993
40
0.89999999999999991
40
1
40
1
40
1
40
1
40
1
40
1
41
1
41
1
41
1
41
1
41
1
41
1
41
1
41
1
41
1
41
1
41
1
41
1
41
1
41
1
41
1
10
0
20
-5
30
0
10
0.18376164138311413
20
-4.9999052713915484
30
0
10
0.54116427637383768
20
-4.9964525478529627
30
0
10
1.0469079383699949
20
-4.9814841965148284
30
0
10
1.6594990528733753
20
-4.9416211741354523
30
0
10
2.3147426235767119
20
-4.8561646703147554
30
0
10
2.8476557388806385
20
-4.7312643617114816
30
0
10
3.2445570489519655
20
-4.5625088816738462
30
0
10
3.4929920366627485
20
-4.3458824392022422
30
0
10
3.5883625794352851
20
-4.0799024317148493
30
0
10
3.5373168338635201
20
-3.7667124676048029
30
0
10
3.3867417018570087
20
-3.4807767862006758
30
0
10
3.2156324105620451
20
-3.2475663326350812
30
0
10
3.0761176476515324
20
-3.083889298890139
30
0
10
3.0000000000000004
20
-3.0000000000000004
30
0
0
LINE
5
109
100
AcDbEntity
8
0
100
AcDbLine
10
2.5
20
-3
30
0
11
3.0000000000000004
21
-3.0000000000000004
31
0
0
ENDSEC
0
SECTION
2
OBJECTS
0
DICTIONARY
5
C
100
AcDbDictionary
3
ACAD_GROUP
350
D
3
ACAD_MLINESTYLE
350
17
0
DICTIONARY
5
D
100
AcDbDictionary
0
DICTIONARY
5
1A
330
C
100
AcDbDictionary
0
DICTIONARY
5
17
100
AcDbDictionary
0
ENDSEC
0
EOF
