0
SECTION
2
HEADER
9
$INSUNITS
70
4
9
$ACADVER
1
AC1014
9
$HANDSEED
5
FFFF
0
ENDSEC
0
SECTION
2
TABLES
0
TABLE
2
VPORT
5
8
100
AcDbSymbolTable
0
ENDTAB
0
TABLE
2
LTYPE
5
5
100
AcDbSymbolTable
0
LTYPE
5
14
100
AcDbSymbolTableRecord
100
AcDbLinetypeTableRecord
2
BYBLOCK
70
0
0
LTYPE
5
15
100
AcDbSymbolTableRecord
100
AcDbLinetypeTableRecord
2
BYLAYER
70
0
0
LTYPE
5
16
100
AcDbSymbolTableRecord
100
AcDbLinetypeTableRecord
2
DASHED
70
0
3
Dashed __ __ __ __ __ __ __ __ __ __ __ __ __ _
72
65
73
2
40
0.75
49
0.5
74
0
49
-0.25
74
0
0
ENDTAB
0
TABLE
2
LAYER
5
2
100
AcDbSymbolTable
70
2
0
LAYER
5
50
100
AcDbSymbolTableRecord
100
AcDbLayerTableRecord
2
0
70
0
62
7
6
CONTINUOUS
0
ENDTAB
0
TABLE
2
STYLE
5
3
100
AcDbSymbolTable
70
1
0
STYLE
5
11
100
AcDbSymbolTableRecord
100
AcDbTextStyleTableRecord
2
STANDARD
70
0
0
ENDTAB
0
TABLE
2
VIEW
5
6
100
AcDbSymbolTable
70
0
0
ENDTAB
0
TABLE
2
UCS
5
7
100
AcDbSymbolTable
70
0
0
ENDTAB
0
TABLE
2
APPID
5
9
100
AcDbSymbolTable
70
2
0
APPID
5
12
100
AcDbSymbolTableRecord
100
AcDbRegAppTableRecord
2
ACAD
70
0
0
ENDTAB
0
TABLE
2
DIMSTYLE
5
A
100
AcDbSymbolTable
70
1
0
ENDTAB
0
TABLE
2
BLOCK_RECORD
5
1
100
AcDbSymbolTable
70
1
0
BLOCK_RECORD
5
1F
100
AcDbSymbolTableRecord
100
AcDbBlockTableRecord
2
*MODEL_SPACE
0
BLOCK_RECORD
5
1B
100
AcDbSymbolTableRecord
100
AcDbBlockTableRecord
2
*PAPER_SPACE
0
ENDTAB
0
ENDSEC
0
SECTION
2
BLOCKS
0
BLOCK
5
20
100
AcDbEntity
100
AcDbBlockBegin
2
*MODEL_SPACE
0
ENDBLK
5
21
100
AcDbEntity
100
AcDbBlockEnd
0
BLOCK
5
1C
100
AcDbEntity
100
AcDbBlockBegin
2
*PAPER_SPACE
0
ENDBLK
5
1D
100
AcDbEntity
100
AcDbBlockEnd
0
ENDSEC
0
SECTION
2
ENTITIES
0
POINT
5
100
100
AcDbEntity
8
0
100
AcDbPoint
10
0
20
0
30
0
0
POINT
5
101
100
AcDbEntity
8
0
100
AcDbPoint
10
0
20
0
30
0
0
POINT
5
102
100
AcDbEntity
8
0
100
AcDbPoint
10
0
20
0
30
0
0
LINE
5
103
100
AcDbEntity
8
0
100
AcDbLine
10
0
20
0
30
0
11
-6.005448225670593e-16
21
-5
31
0
0
LINE
5
104
100
AcDbEntity
8
0
100
AcDbLine
10
0
20
0
30
0
11
1
21
1.5407439555097887e-32
31
0
0
LINE
5
105
100
AcDbEntity
8
0
100
AcDbLine
10
1
20
1.5407439555097887e-32
30
0
11
0.25942668102444755
21
-4.2000000000000002
31
0
0
SPLINE
5
106
100
AcDbEntity
8
0
100
AcDbSpline
70
4
71
5
72
21
73
15
74
0
42
0.000000001
43
0.0000000001
44
0.0000000001
40
0
40
0
40
0
40
0
40
0
40
0
40
0.10000000000000001
40
0.20000000000000001
40
0.30000000000000004
40
0.40000000000000002
40
0.5
40
0.59999999999999998
40
0.69999999999999996
40
0.79999999999999993
40
0.89999999999999991
40
1
40
1
40
1
40
1
40
1
40
1
41
1
41
1
41
1
41
1
41
1
41
1
41
1
41
1
41
1
41
1
41
1
41
1
41
1
41
1
41
1
10
-6.005448225670593e-16
20
-5
30
0
10
0.18337536316528202
20
-4.9817399754573426
30
0
10
0.54331570593219281
20
-4.9426272970987828
30
0
10
1.0627961620992721
20
-4.8761808077215338
30
0
10
1.7138950308682255
20
-4.7717710591938909
30
0
10
2.4534066743806422
20
-4.6129501964990141
30
0
10
3.1105720553792389
20
-4.4227811243089619
30
0
10
3.6761378403178764
20
-4.1977412123373989
30
0
10
4.1416549423910638
20
-3.9346139971417293
30
0
10
4.5038955968816161
20
-3.6321707083887995
30
0
10
4.7672671679961978
20
-3.2920891754332926
30
0
10
4.9038361559010362
20
-2.9918042286551794
30
0
10
4.9669578907193825
20
-2.751627586097193
30
0
10
4.9918506126359681
20
-2.5849663987027105
30
0
10
5
20
-2.5
30
0
0
SPLINE
5
107
100
AcDbEntity
8
0
100
AcDbSpline
70
4
71
5
72
21
73
15
74
0
42
0.000000001
43
0.0000000001
44
0.0000000001
40
0
40
0
40
0
40
0
40
0
40
0
40
0.10000000000000001
40
0.20000000000000001
40
0.30000000000000004
40
0.40000000000000002
40
0.5
40
0.59999999999999998
40
0.69999999999999996
40
0.79999999999999993
40
0.89999999999999991
40
1
40
1
40
1
40
1
40
1
40
1
41
1
41
1
41
1
41
1
41
1
41
1
41
1
41
1
41
1
41
1
41
1
41
1
41
1
41
1
41
1
10
0.25942668102444755
20
-4.2000000000000002
30
0
10
0.40476480558999828
20
-4.1857563902049337
30
0
10
0.69048374220625619
20
-4.1556510637614412
30
0
10
1.1041910382836355
20
-4.1056390240296583
30
0
10
1.6255621011024384
20
-4.029086159750122
30
0
10
2.2231604581360238
20
-3.9157313523258006
30
0
10
2.760866734764412
20
-3.7828272860103924
30
0
10
3.232026826129621
20
-3.6282020072231362
30
0
10
3.6306094216929004
20
-3.4498868474803546
30
0
10
3.9544969455605621
20
-3.2471906129038937
30
0
10
4.207011002547941
20
-3.0211975021398283
30
0
10
4.3555543175243763
20
-2.8229506490303975
30
0
10
4.4386215339384689
20
-2.6650150161800621
30
0
10
4.4816060450647734
20
-2.5556792122966039
30
0
10
4.5
20
-2.5
30
0
0
LINE
5
108
100
AcDbEntity
8
0
100
AcDbLine
10
5
20
-2.5
30
0
11
4.5
21
-2.5
31
0
0
ENDSEC
0
SECTION
2
OBJECTS
0
DICTIONARY
5
C
100
AcDbDictionary
3
ACAD_GROUP
350
D
3
ACAD_MLINESTYLE
350
17
0
DICTIONARY
5
D
100
AcDbDictionary
0
DICTIONARY
5
1A
330
C
100
AcDbDictionary
0
DICTIONARY
5
17
100
AcDbDictionary
0
ENDSEC
0
EOF
